inDegrees=yes
name=ik_Xsens
DataType=double
version=3
OpenSimVersion=4.4-2022-07-23-0e9fedc
endheader
time	pelvis_tilt	pelvis_list	pelvis_rotation	pelvis_tx	pelvis_ty	pelvis_tz	hip_flexion_r	hip_adduction_r	hip_rotation_r	knee_angle_r	knee_angle_r_beta	ankle_angle_r	subtalar_angle_r	mtp_angle_r	hip_flexion_l	hip_adduction_l	hip_rotation_l	knee_angle_l	knee_angle_l_beta	ankle_angle_l	subtalar_angle_l	mtp_angle_l	lumbar_extension	lumbar_bending	lumbar_rotation	arm_flex_r	arm_add_r	arm_rot_r	elbow_flex_r	pro_sup_r	wrist_flex_r	wrist_dev_r	arm_flex_l	arm_add_l	arm_rot_l	elbow_flex_l	pro_sup_l	wrist_flex_l	wrist_dev_l
48.38333333333333	0	0	0	0	0.93	0	0	0	0	0	-2.29588740394978e-41	0	0	0	0	0	0	1.846887279365073e-54	0	0	0	0	0	0	0	119.1022203009468	-72.29239696309116	-20.39628367849265	4.114856105277124	20.38051193917774	0	0	269.7439577503544	-101.919243139324	128.3701841217796	-12.44305398232278	33.11812210930512	0	0
48.4	0	0	0	0	0.93	0	0	0	0	0	0	0	0	0	0	0	0	0	0	0	0	0	0	0	0	119.0658702356537	-72.26729516104197	-20.33980742829947	4.091470854441913	20.38768141138278	0	0	269.6653133517337	-101.9337672438637	128.3605040761482	-12.50213105009848	32.98291818959491	0	0
48.41666666666666	0	0	0	0	0.93	0	4.594144125593695e-49	0	0	2.426570649309934e-20	0	0	0	0	4.594144125593695e-49	0	0	2.426570649309934e-20	0	0	0	0	0	0	0	119.0584708938008	-72.23974013030124	-20.35911800950833	4.04765558102714	20.44975895354348	0	0	269.6208880571554	-101.9205843554299	128.3316655577803	-12.57766849089148	32.90222212919583	0	0
48.43333333333333	0	0	0	0	0.93	0	4.594144125593695e-49	0	0	2.426570649309934e-20	0	0	0	0	4.594144125593695e-49	0	0	2.426570649309934e-20	0	0	0	0	0	0	0	119.0817416743595	-72.20967500365198	-20.42906416043327	3.992403982817348	20.52129163152883	0	0	269.5825062866211	-101.9012691539267	128.2702984147485	-12.65391301685938	32.86581988424148	0	0
48.45	-1.569728658430353e-25	-7.175501150402087e-17	3.256360147268471e-27	1.683207427871562e-25	0.93	1.994158524079801e-25	-1.04097497165929e-32	-2.067309074832902e-22	0	0	-1.307354292271688e-18	-2.208802687460509e-19	-4.376789049753489e-19	2.408312786527677e-18	-3.867568552976279e-21	-1.136745207858866e-29	-6.861188065782676e-21	0	-1.222577798236954e-18	-2.94234336871218e-19	3.046645793770725e-20	-6.00040132775339e-19	-1.569728658430353e-25	-2.492176018736363e-25	1.572486686756956e-25	119.070865697501	-72.19129624160389	-20.51371138376129	3.957460522365138	20.55091302125443	3.607210000940074e-19	2.176638926552313e-17	269.4773131712109	-101.8867813430312	128.1402860849947	-12.7180131970487	32.85624027760527	-7.095434561727903e-21	1.110561448919977e-18
48.46666666666667	0	0	0	0	0.93	0	0	0	0	0	0	0	0	0	0	0	0	0	0	0	0	0	0	0	0	118.7436846549816	-72.1973081692533	-20.82803157400927	4.018352265997503	20.56283318262571	0	0	268.4692398621441	-101.905162004843	127.0647936851203	-12.58074806467902	32.94587965957531	0	0
48.48333333333333	0	0	0	0	0.93	0	4.594144125593695e-49	0	0	2.426570649309934e-20	5.241540515187501e-23	0	0	0	4.594144125593695e-49	0	0	2.426570649309934e-20	5.241540515187501e-23	0	0	0	0	0	0	118.7291080887144	-72.20319506047434	-20.81107635276876	3.972968788890076	20.55094331392891	0	0	268.4519060453015	-101.8530697205084	127.0001441500025	-12.67336546908843	32.95324816928819	0	0
48.5	0	0	0	0	0.93	0	4.594144125593695e-49	0	0	2.426570649309934e-20	5.241540515187501e-23	0	0	0	4.594144125593695e-49	0	0	2.426570649309934e-20	5.241540515187501e-23	0	0	0	0	0	0	118.7012899705663	-72.23910281792972	-20.78962255989063	3.939821931375733	20.50056905747888	0	0	268.4244147016518	-101.8150850217974	126.9112546665102	-12.7537407269092	32.943011184982	0	0
48.51666666666667	0	0	0	0	0.93	0	4.594144125593695e-49	0	0	2.426570649309934e-20	5.241540515187501e-23	0	0	0	4.594144125593695e-49	0	0	2.426570649309934e-20	5.241540515187501e-23	0	0	0	0	0	0	118.6700076463031	-72.27037124425865	-20.77604307113902	3.925767420969904	20.44757991833276	0	0	268.3453649031442	-101.777474617859	126.8003201653841	-12.83941126993935	32.89853293283134	0	0
48.53333333333333	1.709679643049065e-24	2.117210197195177e-22	8.444501707905117e-26	-3.174467741110365e-25	0.93	-1.701660457929446e-28	-1.421400399262027e-24	-1.763772058112318e-16	-1.516005383835156e-17	1.299611369771201e-15	2.281259977296212e-17	-3.353008090670636e-21	-3.774352127495372e-21	-2.262991437612685e-19	7.285425419899103e-19	-1.940432319860526e-16	1.507655391016664e-17	1.300231226428497e-15	3.041214986219669e-17	-9.823047874599921e-22	9.960264170228281e-24	-4.64286976607233e-19	1.405659250978414e-16	1.017542002418391e-15	-6.25410825607083e-16	118.4889001250941	-72.3001059587403	-20.93704493864825	3.984073085787752	20.4164399362295	-5.117153940556085e-23	2.347463491170624e-23	267.1699229521079	-101.8464740319839	125.5710830024846	-12.6428106567208	32.93564859305575	-3.800675211742442e-24	-3.395510698266317e-23
48.55	0	0	0	0	0.93	0	0	0	0	0	0	0	0	0	0	0	0	0	0	0	0	0	0	0	0	118.482122755095	-72.333329084813	-20.93741283207505	3.988868706812778	20.39702200585654	0	0	267.1171642197806	-101.8400362831673	125.5656249424725	-12.72671420243213	32.8529737734281	0	0
48.56666666666666	2.383694664318853e-27	-8.497138476593371e-20	-2.006326279812229e-27	-4.918069497129218e-26	0.93	5.583178464141266e-26	2.155227684594804e-35	-5.082579909629396e-24	0	0	-1.090446695185432e-17	1.328116127833985e-22	-2.725002412988607e-22	1.367705299795145e-18	-3.076503254867076e-22	-6.284859451046908e-31	-4.270026229763868e-23	0	-1.088697649232823e-17	-1.954234202393959e-23	1.671732708366678e-17	3.561133637789907e-19	2.383694664318853e-27	2.323683974914031e-25	9.172840239159845e-25	118.470113922221	-72.37024182960059	-20.96317038613049	4.00633441227999	20.41393479066047	-9.291673963822452e-22	1.147108685453363e-20	267.0425500431961	-101.8444708628446	125.5500915387314	-12.82349498929794	32.73809464031714	-8.805302344894019e-23	6.856912062629427e-22
